<mxfile host="app.diagrams.net" modified="2024-05-28T06:28:42.472Z" agent="Mozilla/5.0 (Macintosh; Intel Mac OS X 10_15_7) AppleWebKit/537.36 (KHTML, like Gecko) Chrome/124.0.0.0 Safari/537.36" etag="hqY6qSoUKLdHBLGmtWYP" version="24.4.9" type="github">
  <diagram id="prtHgNgQTEPvFCAcTncT" name="Page-1">
    <mxGraphModel dx="2021" dy="1861" grid="1" gridSize="10" guides="1" tooltips="1" connect="1" arrows="1" fold="1" page="1" pageScale="1" pageWidth="827" pageHeight="1169" math="0" shadow="0">
      <root>
        <mxCell id="0" />
        <mxCell id="1" parent="0" />
        <mxCell id="grso16V_VAuLWdVkUhK_-35" value="" style="rounded=0;whiteSpace=wrap;html=1;" vertex="1" parent="1">
          <mxGeometry x="923" y="-165" width="870" height="805" as="geometry" />
        </mxCell>
        <mxCell id="grso16V_VAuLWdVkUhK_-8" value="" style="rounded=0;whiteSpace=wrap;html=1;" vertex="1" parent="1">
          <mxGeometry x="-100" y="30" width="270" height="120" as="geometry" />
        </mxCell>
        <mxCell id="grso16V_VAuLWdVkUhK_-11" value="" style="rounded=0;whiteSpace=wrap;html=1;" vertex="1" parent="1">
          <mxGeometry x="-110" y="230" width="300" height="360" as="geometry" />
        </mxCell>
        <mxCell id="grso16V_VAuLWdVkUhK_-23" value="" style="rounded=0;whiteSpace=wrap;html=1;" vertex="1" parent="1">
          <mxGeometry x="240" y="-110" width="620" height="750" as="geometry" />
        </mxCell>
        <mxCell id="grso16V_VAuLWdVkUhK_-9" value="INTRANET" style="text;html=1;align=center;verticalAlign=middle;whiteSpace=wrap;rounded=0;" vertex="1" parent="1">
          <mxGeometry x="5" y="120" width="60" height="30" as="geometry" />
        </mxCell>
        <mxCell id="grso16V_VAuLWdVkUhK_-12" value="&lt;span style=&quot;text-align: left;&quot;&gt;INTRANET-BROWSER&lt;/span&gt;" style="rounded=1;whiteSpace=wrap;html=1;" vertex="1" parent="1">
          <mxGeometry x="-57.5" y="50" width="185" height="30" as="geometry" />
        </mxCell>
        <mxCell id="grso16V_VAuLWdVkUhK_-19" value="" style="edgeStyle=orthogonalEdgeStyle;rounded=0;orthogonalLoop=1;jettySize=auto;html=1;exitX=0;exitY=0.5;exitDx=0;exitDy=0;" edge="1" parent="1" source="grso16V_VAuLWdVkUhK_-14" target="grso16V_VAuLWdVkUhK_-15">
          <mxGeometry relative="1" as="geometry" />
        </mxCell>
        <mxCell id="grso16V_VAuLWdVkUhK_-21" value="https" style="edgeLabel;html=1;align=center;verticalAlign=middle;resizable=0;points=[];" vertex="1" connectable="0" parent="grso16V_VAuLWdVkUhK_-19">
          <mxGeometry x="-0.05" relative="1" as="geometry">
            <mxPoint as="offset" />
          </mxGeometry>
        </mxCell>
        <mxCell id="grso16V_VAuLWdVkUhK_-14" value="&lt;span style=&quot;text-align: left;&quot;&gt;INTERNET-BROWSER&lt;/span&gt;" style="rounded=1;whiteSpace=wrap;html=1;" vertex="1" parent="1">
          <mxGeometry x="-36" y="260" width="170" height="30" as="geometry" />
        </mxCell>
        <mxCell id="grso16V_VAuLWdVkUhK_-15" value="&lt;div style=&quot;text-align: left;&quot;&gt;&lt;span style=&quot;background-color: initial;&quot;&gt;CDN&lt;/span&gt;&lt;/div&gt;" style="rounded=1;whiteSpace=wrap;html=1;" vertex="1" parent="1">
          <mxGeometry x="-83.5" y="380" width="55" height="30" as="geometry" />
        </mxCell>
        <mxCell id="grso16V_VAuLWdVkUhK_-20" value="" style="edgeStyle=orthogonalEdgeStyle;rounded=0;orthogonalLoop=1;jettySize=auto;html=1;" edge="1" parent="1" source="grso16V_VAuLWdVkUhK_-16" target="grso16V_VAuLWdVkUhK_-15">
          <mxGeometry relative="1" as="geometry" />
        </mxCell>
        <mxCell id="grso16V_VAuLWdVkUhK_-22" value="https" style="edgeLabel;html=1;align=center;verticalAlign=middle;resizable=0;points=[];" vertex="1" connectable="0" parent="grso16V_VAuLWdVkUhK_-20">
          <mxGeometry x="-0.025" relative="1" as="geometry">
            <mxPoint as="offset" />
          </mxGeometry>
        </mxCell>
        <mxCell id="grso16V_VAuLWdVkUhK_-16" value="&lt;div style=&quot;text-align: left;&quot;&gt;&lt;span style=&quot;background-color: initial;&quot;&gt;LEC-APP-MOBILE&lt;/span&gt;&lt;/div&gt;" style="rounded=1;whiteSpace=wrap;html=1;" vertex="1" parent="1">
          <mxGeometry x="-11" y="480" width="145" height="30" as="geometry" />
        </mxCell>
        <mxCell id="grso16V_VAuLWdVkUhK_-17" value="INTERNET" style="text;html=1;align=center;verticalAlign=middle;whiteSpace=wrap;rounded=0;" vertex="1" parent="1">
          <mxGeometry y="555" width="70" height="30" as="geometry" />
        </mxCell>
        <mxCell id="grso16V_VAuLWdVkUhK_-26" value="" style="rounded=0;whiteSpace=wrap;html=1;" vertex="1" parent="1">
          <mxGeometry x="262.5" y="160" width="577.5" height="430" as="geometry" />
        </mxCell>
        <mxCell id="grso16V_VAuLWdVkUhK_-25" value="" style="rounded=0;whiteSpace=wrap;html=1;" vertex="1" parent="1">
          <mxGeometry x="262.5" y="-90" width="577.5" height="150" as="geometry" />
        </mxCell>
        <mxCell id="grso16V_VAuLWdVkUhK_-82" value="" style="edgeStyle=orthogonalEdgeStyle;rounded=0;orthogonalLoop=1;jettySize=auto;html=1;entryX=0.25;entryY=0;entryDx=0;entryDy=0;" edge="1" parent="1" source="grso16V_VAuLWdVkUhK_-27" target="grso16V_VAuLWdVkUhK_-29">
          <mxGeometry relative="1" as="geometry" />
        </mxCell>
        <mxCell id="grso16V_VAuLWdVkUhK_-83" value="http" style="edgeLabel;html=1;align=center;verticalAlign=middle;resizable=0;points=[];" vertex="1" connectable="0" parent="grso16V_VAuLWdVkUhK_-82">
          <mxGeometry x="-0.05" y="1" relative="1" as="geometry">
            <mxPoint as="offset" />
          </mxGeometry>
        </mxCell>
        <mxCell id="grso16V_VAuLWdVkUhK_-27" value="LEC-TEACHER-FRONT-NG" style="rounded=1;whiteSpace=wrap;html=1;" vertex="1" parent="1">
          <mxGeometry x="300" y="200" width="186" height="30" as="geometry" />
        </mxCell>
        <mxCell id="grso16V_VAuLWdVkUhK_-86" value="" style="edgeStyle=orthogonalEdgeStyle;rounded=0;orthogonalLoop=1;jettySize=auto;html=1;" edge="1" parent="1" source="grso16V_VAuLWdVkUhK_-28" target="grso16V_VAuLWdVkUhK_-29">
          <mxGeometry relative="1" as="geometry" />
        </mxCell>
        <mxCell id="grso16V_VAuLWdVkUhK_-88" value="http" style="edgeLabel;html=1;align=center;verticalAlign=middle;resizable=0;points=[];" vertex="1" connectable="0" parent="grso16V_VAuLWdVkUhK_-86">
          <mxGeometry x="-0.15" y="1" relative="1" as="geometry">
            <mxPoint as="offset" />
          </mxGeometry>
        </mxCell>
        <mxCell id="grso16V_VAuLWdVkUhK_-28" value="LEC-RESOURCE-JBS-APP" style="rounded=1;whiteSpace=wrap;html=1;" vertex="1" parent="1">
          <mxGeometry x="310" y="263" width="186" height="30" as="geometry" />
        </mxCell>
        <mxCell id="grso16V_VAuLWdVkUhK_-29" value="LEC-AUTH-JBS-APP" style="rounded=1;whiteSpace=wrap;html=1;" vertex="1" parent="1">
          <mxGeometry x="550" y="263" width="160" height="30" as="geometry" />
        </mxCell>
        <mxCell id="grso16V_VAuLWdVkUhK_-85" value="" style="edgeStyle=orthogonalEdgeStyle;rounded=0;orthogonalLoop=1;jettySize=auto;html=1;entryX=0.25;entryY=1;entryDx=0;entryDy=0;" edge="1" parent="1" source="grso16V_VAuLWdVkUhK_-30" target="grso16V_VAuLWdVkUhK_-29">
          <mxGeometry relative="1" as="geometry" />
        </mxCell>
        <mxCell id="grso16V_VAuLWdVkUhK_-89" value="http" style="edgeLabel;html=1;align=center;verticalAlign=middle;resizable=0;points=[];" vertex="1" connectable="0" parent="grso16V_VAuLWdVkUhK_-85">
          <mxGeometry x="-0.4554" relative="1" as="geometry">
            <mxPoint as="offset" />
          </mxGeometry>
        </mxCell>
        <mxCell id="grso16V_VAuLWdVkUhK_-30" value="LEC-MOBILE-FRONT-NG" style="rounded=1;whiteSpace=wrap;html=1;" vertex="1" parent="1">
          <mxGeometry x="300" y="384" width="186" height="30" as="geometry" />
        </mxCell>
        <mxCell id="grso16V_VAuLWdVkUhK_-31" value="LEC-NAS" style="rounded=1;whiteSpace=wrap;html=1;" vertex="1" parent="1">
          <mxGeometry x="700" y="410" width="106" height="30" as="geometry" />
        </mxCell>
        <mxCell id="grso16V_VAuLWdVkUhK_-32" value="LEC-&lt;span style=&quot;background-color: initial;&quot;&gt;REDIS&lt;/span&gt;" style="rounded=1;whiteSpace=wrap;html=1;" vertex="1" parent="1">
          <mxGeometry x="710" y="480" width="117" height="30" as="geometry" />
        </mxCell>
        <mxCell id="grso16V_VAuLWdVkUhK_-37" value="" style="rounded=0;whiteSpace=wrap;html=1;" vertex="1" parent="1">
          <mxGeometry x="948" y="105" width="645" height="430" as="geometry" />
        </mxCell>
        <mxCell id="grso16V_VAuLWdVkUhK_-33" value="101318-IAS" style="rounded=1;whiteSpace=wrap;html=1;" vertex="1" parent="1">
          <mxGeometry x="290" y="-50" width="100" height="30" as="geometry" />
        </mxCell>
        <mxCell id="grso16V_VAuLWdVkUhK_-34" value="GW-PROXY-RP-TM-DMZ" style="rounded=1;whiteSpace=wrap;html=1;" vertex="1" parent="1">
          <mxGeometry x="680" y="-50" width="147" height="30" as="geometry" />
        </mxCell>
        <mxCell id="grso16V_VAuLWdVkUhK_-36" value="" style="rounded=0;whiteSpace=wrap;html=1;" vertex="1" parent="1">
          <mxGeometry x="945.5" y="-145" width="807.5" height="150" as="geometry" />
        </mxCell>
        <mxCell id="grso16V_VAuLWdVkUhK_-40" value="LEC-EXAM-JBS-APP" style="rounded=1;whiteSpace=wrap;html=1;" vertex="1" parent="1">
          <mxGeometry x="1253" y="135" width="186" height="25" as="geometry" />
        </mxCell>
        <mxCell id="grso16V_VAuLWdVkUhK_-41" value="LEC-MYSQL-DB" style="rounded=1;whiteSpace=wrap;html=1;" vertex="1" parent="1">
          <mxGeometry x="1253" y="435" width="186" height="25" as="geometry" />
        </mxCell>
        <mxCell id="grso16V_VAuLWdVkUhK_-42" value="LEC-NAS" style="rounded=1;whiteSpace=wrap;html=1;" vertex="1" parent="1">
          <mxGeometry x="1300" y="485" width="186" height="25" as="geometry" />
        </mxCell>
        <mxCell id="grso16V_VAuLWdVkUhK_-43" value="LEC-REDIS" style="rounded=1;whiteSpace=wrap;html=1;" vertex="1" parent="1">
          <mxGeometry x="1261" y="350" width="186" height="25" as="geometry" />
        </mxCell>
        <mxCell id="grso16V_VAuLWdVkUhK_-44" value="PPM-MQ" style="rounded=1;whiteSpace=wrap;html=1;" vertex="1" parent="1">
          <mxGeometry x="973" y="-105" width="100" height="25" as="geometry" />
        </mxCell>
        <mxCell id="grso16V_VAuLWdVkUhK_-46" value="LEC-QUESTIONNAIRE-JBS-APP" style="rounded=1;whiteSpace=wrap;html=1;" vertex="1" parent="1">
          <mxGeometry x="1273" y="240" width="186" height="30" as="geometry" />
        </mxCell>
        <mxCell id="grso16V_VAuLWdVkUhK_-87" value="" style="edgeStyle=orthogonalEdgeStyle;rounded=0;orthogonalLoop=1;jettySize=auto;html=1;entryX=0.5;entryY=1;entryDx=0;entryDy=0;" edge="1" parent="1" source="grso16V_VAuLWdVkUhK_-47" target="grso16V_VAuLWdVkUhK_-29">
          <mxGeometry relative="1" as="geometry" />
        </mxCell>
        <mxCell id="grso16V_VAuLWdVkUhK_-90" value="http" style="edgeLabel;html=1;align=center;verticalAlign=middle;resizable=0;points=[];" vertex="1" connectable="0" parent="grso16V_VAuLWdVkUhK_-87">
          <mxGeometry x="-0.5761" y="2" relative="1" as="geometry">
            <mxPoint as="offset" />
          </mxGeometry>
        </mxCell>
        <mxCell id="grso16V_VAuLWdVkUhK_-47" value="LEC-DESIGNER-FRONT-NG" style="rounded=1;whiteSpace=wrap;html=1;" vertex="1" parent="1">
          <mxGeometry x="300" y="455" width="186" height="30" as="geometry" />
        </mxCell>
        <mxCell id="grso16V_VAuLWdVkUhK_-94" style="edgeStyle=orthogonalEdgeStyle;rounded=0;orthogonalLoop=1;jettySize=auto;html=1;entryX=0.5;entryY=1;entryDx=0;entryDy=0;" edge="1" parent="1" source="grso16V_VAuLWdVkUhK_-48" target="grso16V_VAuLWdVkUhK_-29">
          <mxGeometry relative="1" as="geometry" />
        </mxCell>
        <mxCell id="grso16V_VAuLWdVkUhK_-95" value="http" style="edgeLabel;html=1;align=center;verticalAlign=middle;resizable=0;points=[];" vertex="1" connectable="0" parent="grso16V_VAuLWdVkUhK_-94">
          <mxGeometry x="-0.6741" relative="1" as="geometry">
            <mxPoint as="offset" />
          </mxGeometry>
        </mxCell>
        <mxCell id="grso16V_VAuLWdVkUhK_-48" value="LEC-EBOOK-FRONT-NG" style="rounded=1;whiteSpace=wrap;html=1;" vertex="1" parent="1">
          <mxGeometry x="299" y="525" width="186" height="30" as="geometry" />
        </mxCell>
        <mxCell id="grso16V_VAuLWdVkUhK_-92" style="edgeStyle=orthogonalEdgeStyle;rounded=0;orthogonalLoop=1;jettySize=auto;html=1;entryX=0.25;entryY=1;entryDx=0;entryDy=0;" edge="1" parent="1" source="grso16V_VAuLWdVkUhK_-49" target="grso16V_VAuLWdVkUhK_-29">
          <mxGeometry relative="1" as="geometry">
            <mxPoint x="550" y="270" as="targetPoint" />
          </mxGeometry>
        </mxCell>
        <mxCell id="grso16V_VAuLWdVkUhK_-93" value="http" style="edgeLabel;html=1;align=center;verticalAlign=middle;resizable=0;points=[];" vertex="1" connectable="0" parent="grso16V_VAuLWdVkUhK_-92">
          <mxGeometry x="-0.4" y="-2" relative="1" as="geometry">
            <mxPoint as="offset" />
          </mxGeometry>
        </mxCell>
        <mxCell id="grso16V_VAuLWdVkUhK_-49" value="LEC-H5-FRONT-NG" style="rounded=1;whiteSpace=wrap;html=1;" vertex="1" parent="1">
          <mxGeometry x="300" y="325" width="186" height="30" as="geometry" />
        </mxCell>
        <mxCell id="grso16V_VAuLWdVkUhK_-50" value="IAM-CAS" style="rounded=1;whiteSpace=wrap;html=1;" vertex="1" parent="1">
          <mxGeometry x="1113" y="-105" width="100" height="25" as="geometry" />
        </mxCell>
        <mxCell id="grso16V_VAuLWdVkUhK_-51" value="MSP-NACOS" style="rounded=1;whiteSpace=wrap;html=1;" vertex="1" parent="1">
          <mxGeometry x="1253" y="-105" width="100" height="25" as="geometry" />
        </mxCell>
        <mxCell id="grso16V_VAuLWdVkUhK_-52" value="MSP-CORE" style="rounded=1;whiteSpace=wrap;html=1;" vertex="1" parent="1">
          <mxGeometry x="1403" y="-105" width="100" height="25" as="geometry" />
        </mxCell>
        <mxCell id="grso16V_VAuLWdVkUhK_-53" value="BD-ETL" style="rounded=1;whiteSpace=wrap;html=1;" vertex="1" parent="1">
          <mxGeometry x="1573" y="-105" width="100" height="25" as="geometry" />
        </mxCell>
        <mxCell id="grso16V_VAuLWdVkUhK_-56" value="" style="edgeStyle=orthogonalEdgeStyle;rounded=0;orthogonalLoop=1;jettySize=auto;html=1;" edge="1" parent="1" source="grso16V_VAuLWdVkUhK_-54" target="grso16V_VAuLWdVkUhK_-15">
          <mxGeometry relative="1" as="geometry" />
        </mxCell>
        <mxCell id="grso16V_VAuLWdVkUhK_-57" value="https" style="edgeLabel;html=1;align=center;verticalAlign=middle;resizable=0;points=[];" vertex="1" connectable="0" parent="grso16V_VAuLWdVkUhK_-56">
          <mxGeometry x="-0.0857" y="1" relative="1" as="geometry">
            <mxPoint as="offset" />
          </mxGeometry>
        </mxCell>
        <mxCell id="grso16V_VAuLWdVkUhK_-54" value="&lt;div style=&quot;text-align: left;&quot;&gt;&lt;span style=&quot;background-color: initial;&quot;&gt;LEC-WECHAT&lt;/span&gt;&lt;/div&gt;" style="rounded=1;whiteSpace=wrap;html=1;" vertex="1" parent="1">
          <mxGeometry x="30" y="380" width="120" height="30" as="geometry" />
        </mxCell>
        <mxCell id="grso16V_VAuLWdVkUhK_-58" value="DMZ" style="text;html=1;align=center;verticalAlign=middle;whiteSpace=wrap;rounded=0;" vertex="1" parent="1">
          <mxGeometry x="470" y="610" width="60" height="30" as="geometry" />
        </mxCell>
        <mxCell id="grso16V_VAuLWdVkUhK_-59" value="CORE" style="text;html=1;align=center;verticalAlign=middle;whiteSpace=wrap;rounded=0;" vertex="1" parent="1">
          <mxGeometry x="1328" y="610" width="60" height="30" as="geometry" />
        </mxCell>
        <mxCell id="grso16V_VAuLWdVkUhK_-63" value="" style="endArrow=classic;html=1;rounded=0;exitX=1;exitY=0;exitDx=0;exitDy=0;entryX=0;entryY=0.5;entryDx=0;entryDy=0;" edge="1" parent="1" source="grso16V_VAuLWdVkUhK_-14" target="grso16V_VAuLWdVkUhK_-27">
          <mxGeometry width="50" height="50" relative="1" as="geometry">
            <mxPoint x="140" y="270" as="sourcePoint" />
            <mxPoint x="190" y="220" as="targetPoint" />
          </mxGeometry>
        </mxCell>
        <mxCell id="grso16V_VAuLWdVkUhK_-65" value="https" style="edgeLabel;html=1;align=center;verticalAlign=middle;resizable=0;points=[];" vertex="1" connectable="0" parent="grso16V_VAuLWdVkUhK_-63">
          <mxGeometry x="0.0275" y="-3" relative="1" as="geometry">
            <mxPoint x="1" as="offset" />
          </mxGeometry>
        </mxCell>
        <mxCell id="grso16V_VAuLWdVkUhK_-66" value="" style="endArrow=classic;html=1;rounded=0;entryX=0;entryY=0.5;entryDx=0;entryDy=0;exitX=1;exitY=0.5;exitDx=0;exitDy=0;" edge="1" parent="1" source="grso16V_VAuLWdVkUhK_-14" target="grso16V_VAuLWdVkUhK_-28">
          <mxGeometry width="50" height="50" relative="1" as="geometry">
            <mxPoint x="130" y="290" as="sourcePoint" />
            <mxPoint x="180" y="240" as="targetPoint" />
          </mxGeometry>
        </mxCell>
        <mxCell id="grso16V_VAuLWdVkUhK_-67" value="https" style="edgeLabel;html=1;align=center;verticalAlign=middle;resizable=0;points=[];" vertex="1" connectable="0" parent="grso16V_VAuLWdVkUhK_-66">
          <mxGeometry x="-0.04" y="-1" relative="1" as="geometry">
            <mxPoint as="offset" />
          </mxGeometry>
        </mxCell>
        <mxCell id="grso16V_VAuLWdVkUhK_-68" value="" style="endArrow=classic;html=1;rounded=0;entryX=0;entryY=0.5;entryDx=0;entryDy=0;exitX=1;exitY=0;exitDx=0;exitDy=0;" edge="1" parent="1" source="grso16V_VAuLWdVkUhK_-16" target="grso16V_VAuLWdVkUhK_-28">
          <mxGeometry width="50" height="50" relative="1" as="geometry">
            <mxPoint x="130" y="490" as="sourcePoint" />
            <mxPoint x="180" y="440" as="targetPoint" />
          </mxGeometry>
        </mxCell>
        <mxCell id="grso16V_VAuLWdVkUhK_-69" value="" style="endArrow=classic;html=1;rounded=0;entryX=0;entryY=0.5;entryDx=0;entryDy=0;exitX=1;exitY=0.5;exitDx=0;exitDy=0;" edge="1" parent="1" source="grso16V_VAuLWdVkUhK_-16" target="grso16V_VAuLWdVkUhK_-30">
          <mxGeometry width="50" height="50" relative="1" as="geometry">
            <mxPoint x="140" y="500" as="sourcePoint" />
            <mxPoint x="190" y="460" as="targetPoint" />
          </mxGeometry>
        </mxCell>
        <mxCell id="grso16V_VAuLWdVkUhK_-70" value="" style="endArrow=classic;html=1;rounded=0;exitX=1;exitY=0;exitDx=0;exitDy=0;entryX=0;entryY=0.5;entryDx=0;entryDy=0;" edge="1" parent="1" source="grso16V_VAuLWdVkUhK_-54" target="grso16V_VAuLWdVkUhK_-28">
          <mxGeometry width="50" height="50" relative="1" as="geometry">
            <mxPoint x="150" y="390" as="sourcePoint" />
            <mxPoint x="280" y="280" as="targetPoint" />
          </mxGeometry>
        </mxCell>
        <mxCell id="grso16V_VAuLWdVkUhK_-77" value="https" style="edgeLabel;html=1;align=center;verticalAlign=middle;resizable=0;points=[];" vertex="1" connectable="0" parent="grso16V_VAuLWdVkUhK_-70">
          <mxGeometry x="0.0074" y="1" relative="1" as="geometry">
            <mxPoint as="offset" />
          </mxGeometry>
        </mxCell>
        <mxCell id="grso16V_VAuLWdVkUhK_-71" value="" style="endArrow=classic;html=1;rounded=0;entryX=0;entryY=0.5;entryDx=0;entryDy=0;exitX=1;exitY=0.5;exitDx=0;exitDy=0;" edge="1" parent="1" source="grso16V_VAuLWdVkUhK_-54" target="grso16V_VAuLWdVkUhK_-49">
          <mxGeometry width="50" height="50" relative="1" as="geometry">
            <mxPoint x="140" y="410" as="sourcePoint" />
            <mxPoint x="190" y="360" as="targetPoint" />
          </mxGeometry>
        </mxCell>
        <mxCell id="grso16V_VAuLWdVkUhK_-81" value="https" style="edgeLabel;html=1;align=center;verticalAlign=middle;resizable=0;points=[];" vertex="1" connectable="0" parent="grso16V_VAuLWdVkUhK_-71">
          <mxGeometry x="-0.0224" y="-1" relative="1" as="geometry">
            <mxPoint x="1" as="offset" />
          </mxGeometry>
        </mxCell>
        <mxCell id="grso16V_VAuLWdVkUhK_-72" value="" style="endArrow=classic;html=1;rounded=0;entryX=0;entryY=0;entryDx=0;entryDy=0;exitX=0.8;exitY=0.167;exitDx=0;exitDy=0;exitPerimeter=0;" edge="1" parent="1" source="grso16V_VAuLWdVkUhK_-11" target="grso16V_VAuLWdVkUhK_-47">
          <mxGeometry width="50" height="50" relative="1" as="geometry">
            <mxPoint x="100" y="350" as="sourcePoint" />
            <mxPoint x="150" y="300" as="targetPoint" />
          </mxGeometry>
        </mxCell>
        <mxCell id="grso16V_VAuLWdVkUhK_-73" value="" style="endArrow=classic;html=1;rounded=0;exitX=1;exitY=0.5;exitDx=0;exitDy=0;entryX=0;entryY=0.25;entryDx=0;entryDy=0;" edge="1" parent="1" source="grso16V_VAuLWdVkUhK_-14" target="grso16V_VAuLWdVkUhK_-48">
          <mxGeometry width="50" height="50" relative="1" as="geometry">
            <mxPoint x="60" y="370" as="sourcePoint" />
            <mxPoint x="310" y="540" as="targetPoint" />
          </mxGeometry>
        </mxCell>
        <mxCell id="grso16V_VAuLWdVkUhK_-78" value="https" style="edgeLabel;html=1;align=center;verticalAlign=middle;resizable=0;points=[];" vertex="1" connectable="0" parent="grso16V_VAuLWdVkUhK_-73">
          <mxGeometry x="0.0726" y="-1" relative="1" as="geometry">
            <mxPoint as="offset" />
          </mxGeometry>
        </mxCell>
        <mxCell id="grso16V_VAuLWdVkUhK_-74" value="" style="endArrow=classic;html=1;rounded=0;exitX=1;exitY=0.75;exitDx=0;exitDy=0;entryX=0;entryY=0.5;entryDx=0;entryDy=0;" edge="1" parent="1" source="grso16V_VAuLWdVkUhK_-54" target="grso16V_VAuLWdVkUhK_-48">
          <mxGeometry width="50" height="50" relative="1" as="geometry">
            <mxPoint x="240" y="580" as="sourcePoint" />
            <mxPoint x="290" y="530" as="targetPoint" />
          </mxGeometry>
        </mxCell>
        <mxCell id="grso16V_VAuLWdVkUhK_-80" value="https" style="edgeLabel;html=1;align=center;verticalAlign=middle;resizable=0;points=[];" vertex="1" connectable="0" parent="grso16V_VAuLWdVkUhK_-74">
          <mxGeometry x="0.0799" y="-1" relative="1" as="geometry">
            <mxPoint as="offset" />
          </mxGeometry>
        </mxCell>
        <mxCell id="grso16V_VAuLWdVkUhK_-75" value="" style="endArrow=classic;html=1;rounded=0;exitX=1;exitY=1;exitDx=0;exitDy=0;entryX=0;entryY=0.5;entryDx=0;entryDy=0;" edge="1" parent="1" source="grso16V_VAuLWdVkUhK_-16" target="grso16V_VAuLWdVkUhK_-48">
          <mxGeometry width="50" height="50" relative="1" as="geometry">
            <mxPoint x="240" y="590" as="sourcePoint" />
            <mxPoint x="290" y="540" as="targetPoint" />
          </mxGeometry>
        </mxCell>
        <mxCell id="grso16V_VAuLWdVkUhK_-76" value="https" style="edgeLabel;html=1;align=center;verticalAlign=middle;resizable=0;points=[];" vertex="1" connectable="0" parent="grso16V_VAuLWdVkUhK_-75">
          <mxGeometry x="-0.116" relative="1" as="geometry">
            <mxPoint as="offset" />
          </mxGeometry>
        </mxCell>
        <mxCell id="grso16V_VAuLWdVkUhK_-96" value="HUAWEIYUN-OBS" style="rounded=1;whiteSpace=wrap;html=1;" vertex="1" parent="1">
          <mxGeometry x="430" y="-50" width="186" height="30" as="geometry" />
        </mxCell>
        <mxCell id="grso16V_VAuLWdVkUhK_-98" style="edgeStyle=orthogonalEdgeStyle;rounded=0;orthogonalLoop=1;jettySize=auto;html=1;entryX=0;entryY=0.5;entryDx=0;entryDy=0;" edge="1" parent="1" source="grso16V_VAuLWdVkUhK_-29" target="grso16V_VAuLWdVkUhK_-38">
          <mxGeometry relative="1" as="geometry" />
        </mxCell>
        <mxCell id="grso16V_VAuLWdVkUhK_-101" value="http" style="edgeLabel;html=1;align=center;verticalAlign=middle;resizable=0;points=[];" vertex="1" connectable="0" parent="grso16V_VAuLWdVkUhK_-98">
          <mxGeometry x="-0.5311" relative="1" as="geometry">
            <mxPoint as="offset" />
          </mxGeometry>
        </mxCell>
        <mxCell id="grso16V_VAuLWdVkUhK_-99" style="edgeStyle=orthogonalEdgeStyle;rounded=0;orthogonalLoop=1;jettySize=auto;html=1;exitX=1;exitY=0;exitDx=0;exitDy=0;entryX=0.215;entryY=0.04;entryDx=0;entryDy=0;entryPerimeter=0;" edge="1" parent="1" source="grso16V_VAuLWdVkUhK_-28" target="grso16V_VAuLWdVkUhK_-38">
          <mxGeometry relative="1" as="geometry" />
        </mxCell>
        <mxCell id="grso16V_VAuLWdVkUhK_-100" value="http" style="edgeLabel;html=1;align=center;verticalAlign=middle;resizable=0;points=[];" vertex="1" connectable="0" parent="grso16V_VAuLWdVkUhK_-99">
          <mxGeometry x="0.1317" y="-1" relative="1" as="geometry">
            <mxPoint as="offset" />
          </mxGeometry>
        </mxCell>
        <mxCell id="grso16V_VAuLWdVkUhK_-38" value="LEC-API-JBS-APP" style="rounded=1;whiteSpace=wrap;html=1;" vertex="1" parent="1">
          <mxGeometry x="980" y="205" width="186" height="25" as="geometry" />
        </mxCell>
        <mxCell id="grso16V_VAuLWdVkUhK_-39" value="LEC-SEARCH-JBS-APP" style="rounded=1;whiteSpace=wrap;html=1;" vertex="1" parent="1">
          <mxGeometry x="980" y="330" width="186" height="25" as="geometry" />
        </mxCell>
        <mxCell id="grso16V_VAuLWdVkUhK_-102" style="edgeStyle=orthogonalEdgeStyle;rounded=0;orthogonalLoop=1;jettySize=auto;html=1;entryX=0;entryY=0.5;entryDx=0;entryDy=0;" edge="1" parent="1" source="grso16V_VAuLWdVkUhK_-29" target="grso16V_VAuLWdVkUhK_-39">
          <mxGeometry relative="1" as="geometry" />
        </mxCell>
      </root>
    </mxGraphModel>
  </diagram>
</mxfile>
